<?xml version="1.0" encoding="UTF-8" standalone="no"?>
<svg
   width="2000"
   height="877.06"
   viewBox="0 0 2000 877.06"
   fill="none"
   version="1.1"
   id="svg215"
   sodipodi:docname="2022_MTV_Video_Music_Awards.svg"
   xml:space="preserve"
   inkscape:version="1.3-beta (cedbd6c6ff, 2023-05-28)"
   xmlns:inkscape="http://www.inkscape.org/namespaces/inkscape"
   xmlns:sodipodi="http://sodipodi.sourceforge.net/DTD/sodipodi-0.dtd"
   xmlns="http://www.w3.org/2000/svg"
   xmlns:svg="http://www.w3.org/2000/svg"
   xmlns:rdf="http://www.w3.org/1999/02/22-rdf-syntax-ns#"
   xmlns:cc="http://creativecommons.org/ns#"
   xmlns:dc="http://purl.org/dc/elements/1.1/"><title
     id="title2690">2022 MTV Video Music Awards</title><defs
     id="defs219" /><sodipodi:namedview
     id="namedview217"
     pagecolor="#ffffff"
     bordercolor="#666666"
     borderopacity="1.0"
     inkscape:showpageshadow="2"
     inkscape:pageopacity="0.0"
     inkscape:pagecheckerboard="0"
     inkscape:deskcolor="#d1d1d1"
     showgrid="false"
     inkscape:zoom="0.256"
     inkscape:cx="964.84375"
     inkscape:cy="300.78125"
     inkscape:window-width="1366"
     inkscape:window-height="705"
     inkscape:window-x="-8"
     inkscape:window-y="-8"
     inkscape:window-maximized="1"
     inkscape:current-layer="svg215" /><path
     inkscape:connector-curvature="0"
     id="rect4272"
     d="M 0,0 H 2000 V 877.06 H 0 Z"
     style="fill:#f6f705;fill-opacity:1;stroke:none;stroke-width:3.56363" /><path
     fill-rule="evenodd"
     clip-rule="evenodd"
     d="m 1266.8674,560.44607 h 194.7488 l 71.815,-71.68687 71.8102,71.68687 h 194.7583 V 468.31451 L 1533.4312,202.22058 1266.8674,468.31451 Z"
     fill="white"
     id="path183"
     style="fill:#f138f8;fill-opacity:1;stroke:none;stroke-width:4.74465" /><path
     fill-rule="evenodd"
     clip-rule="evenodd"
     d="M 539.58421,200 467.76449,271.68686 395.959,200 H 201.20561 v 92.13154 l 266.55888,266.08929 266.56375,-266.08929 1.63216,-91.5954 z"
     fill="white"
     id="path185"
     style="fill:#f138f8;fill-opacity:1;stroke:none;stroke-width:4.74465" /><path
     fill-rule="evenodd"
     clip-rule="evenodd"
     d="m 1237.2608,473.90798 c -3.0128,11.13094 -4.1468,19.61437 -4.4078,30.66465 -0.4412,18.89793 -27.3529,26.40396 -42.27,4.94392 -12.2792,-17.66432 -26.3613,-80.68746 -28.0077,-88.16977 -6.7326,-30.56502 -9.3327,-41.7007 -10.1772,-53.00245 -1.0866,-14.48067 4.7446,-22.70314 17.6121,-26.03862 13.323,-3.44936 24.1597,3.19314 25.2415,17.79717 2.0307,27.46201 3.6961,48.87935 6.3483,61.37675 0.8825,4.18478 3.3498,5.69357 5.9925,5.69357 3.4494,0 5.4611,-2.40079 6.6805,-5.02932 5.0436,-10.8605 17.9537,-57.19198 60.4326,-111.03423 V 200.51199 h -204.9878 l -70.19227,70.19225 -70.1923,-70.19225 H 724.3455 v 359.9336 h 207.24143 l 0.005,-124.07726 67.93385,67.93385 67.93392,-67.93385 v 124.07726 h 27.8416 c 0.28,-9.75499 0.4792,-22.73635 0.2989,-28.24963 -0.2562,-5.75051 -0.5361,-19.56692 -0.5361,-27.03499 0,-41.54888 3.6391,-51.73089 3.6391,-111.60833 0,-17.9063 -4.0092,-22.2524 -9.7882,-22.2524 -6.4527,0 -22.7695,12.26491 -34.7972,20.82426 -19.2823,13.70728 -29.6683,24.62946 -42.1515,24.62946 -7.3684,0 -11.5722,-3.25008 -16.25042,-9.23308 -0.87776,-1.10551 -3.35447,-6.05417 -3.35447,-9.99697 0,-4.42676 1.76975,-10.5521 8.55939,-14.65147 7.3542,-4.42201 15.4676,-3.57272 32.8946,-14.09161 20.6677,-12.47367 45.3778,-26.9401 49.3539,-29.45951 7.1027,-3.73403 5.4041,-9.48455 5.4136,-14.8033 0,-11.59117 10.386,-15.6004 19.3012,-15.6004 8.5499,0 13.8591,3.15994 15.1402,3.73879 3.1979,-1.76976 11.5153,-6.429 27.0824,-16.03217 19.1494,-11.80942 18.8173,-21.15163 30.7548,-23.709 13.2376,-2.83729 21.6166,10.07289 21.6166,19.09721 0,13.52699 -17.2847,21.39361 -25.9959,26.31381 -24.3732,13.76422 -32.9942,19.56692 -41.6769,25.18459 0.4602,5.42313 0.4554,18.02491 0.4649,28.91387 0,18.12455 5.4374,51.95863 5.4374,70.71422 0,22.25239 -0.9252,49.84726 -0.9252,56.71277 0,11.06926 1.2526,23.63783 2.2822,32.34425 0.669,7.12646 1.5847,18.79355 2.0829,28.24963 h 130.5537 V 386.9813 c -0.2278,0.446 -0.4555,0.89199 -0.6833,1.34748 -11.3017,22.50386 -25.7397,47.48917 -36.7615,85.5792 z"
     fill="white"
     id="path187"
     style="fill:#f138f8;fill-opacity:1;stroke:none;stroke-width:4.74465" /><path
     d="m 213.80974,614.60079 h -13.80918 l 23.22909,61.5449 h 11.9342 l 23.31352,-61.5449 h -13.76719 l -15.38553,44.2407 z m 90.66981,0 v 61.5449 h 12.57263 v -61.5449 z m 84.40344,0 h -21.01135 v 61.5449 h 21.01135 q 14.70468,0 22.84476,-8.0981 8.14137,-8.1406 8.14137,-22.7171 0,-14.5336 -8.14137,-22.6316 -8.14008,-8.0981 -22.84476,-8.0981 z m 0,50.37809 h -8.43874 v -39.21139 h 8.43874 q 8.82306,0 13.17032,5.02939 4.38969,4.9866 4.38969,14.5336 0,19.6484 -17.56001,19.6484 z m 122.55059,-39.21139 v -11.1667 h -43.3458 v 61.5449 h 44.15476 v -11.1668 H 480.6604 v -15.9829 h 25.82863 v -11.1667 H 480.6604 v -12.0618 z m 44.72321,19.4779 q 0,9.3766 3.53787,16.7501 3.5803,7.3735 10.31372,11.6355 6.77669,4.2621 15.72788,4.2621 6.73384,0 12.2744,-2.472 5.5834,-2.472 9.33465,-6.8194 3.74999,-4.3473 5.79636,-10.357 2.08793,-6.0095 2.08793,-12.9993 0,-9.1636 -3.53703,-16.3665 -3.49545,-7.2457 -10.27214,-11.4225 -6.73386,-4.1768 -15.68417,-4.1768 -8.99275,0 -15.76945,4.1768 -6.73468,4.1768 -10.27214,11.4225 -3.53788,7.2029 -3.53788,16.3665 z m 13.4257,0 q 0,-9.7177 4.39009,-14.7895 4.39012,-5.11461 11.76368,-5.11461 7.24543,0 11.63554,5.2423 4.43295,5.1999 4.43295,14.6618 0,10.1438 -4.39011,15.3862 -4.39011,5.1997 -11.67839,5.1997 -7.33071,0 -11.76367,-5.2424 -4.3901,-5.2424 -4.39009,-15.34349 z m 202.6916,-30.6446 -20.41535,36.3984 -20.58587,-36.3984 H 719.8507 v 61.5449 h 12.18956 v -38.6573 l 14.74667,27.2348 h 10.05878 l 14.74668,-27.2348 v 38.6573 h 12.2324 v -61.5449 z m 85.46947,63.2923 q 6.64944,0 11.42259,-1.8754 4.81687,-1.9179 7.71505,-5.5833 2.94102,-3.6654 4.30442,-8.652 1.3634,-4.9868 1.3634,-11.5503 v -35.6313 h -12.57305 v 35.6313 q 0,8.4816 -3.02544,12.0617 -2.98386,3.53749 -9.20697,3.53749 -6.30794,0 -9.33338,-3.53749 -2.98387,-3.5801 -2.98387,-12.0617 v -35.6313 H 832.8537 v 35.6313 q 0,13.3829 5.92361,20.5433 5.9673,7.1177 18.96625,7.1177 z m 97.4465,0 q 10.99627,0 17.30422,-5.0719 6.35078,-5.0719 6.35078,-13.1699 0,-3.7933 -0.97568,-6.7768 -0.985,-3.02601 -2.68522,-4.9441 -1.66204,-1.9604 -3.92093,-3.4948 -2.21649,-1.5344 -4.77318,-2.3442 -2.51511,-0.8519 -5.15749,-1.6196 -2.64239,-0.7673 -5.20034,-1.236 -2.51385,-0.4687 -4.77317,-1.1508 -2.21605,-0.7246 -3.92093,-1.5344 -1.66205,-0.8101 -2.64239,-2.1737 -0.98542,-1.4064 -0.98542,-3.2818 0,-3.1964 2.34373,-5.0293 2.34501,-1.8753 6.98964,-1.8753 4.64591,0 7.37398,2.3442 2.77048,2.3015 3.53788,6.2226 l 12.23155,-1.9179 q -1.23613,-7.8849 -7.15975,-12.6585 -5.92488,-4.8161 -15.89796,-4.8161 -5.1575,0 -9.37623,1.4917 -4.22001,1.4492 -6.94765,3.9638 -2.68522,2.5147 -4.13431,5.7539 -1.4491,3.239 -1.4491,6.8619 0,3.9637 1.15045,7.0751 1.19415,3.0687 3.19682,4.9866 2.00311,1.918 4.56106,3.3671 2.59955,1.4065 5.45488,2.2589 2.89817,0.8102 5.75435,1.5344 2.85533,0.6818 5.41245,1.4065 2.60038,0.6817 4.60305,1.6197 2.0031,0.8947 3.15355,2.4294 1.1933,1.5343 1.1933,3.6227 0,3.495 -2.98259,5.3277 -2.98386,1.8326 -7.54409,1.8326 -5.92445,0 -9.20569,-2.7277 -3.23965,-2.7704 -4.34853,-8.0981 l -12.74272,2.259 q 3.70798,19.5631 26.21168,19.5631 z m 72.12904,-63.2923 v 61.5449 h 12.5731 v -61.5449 z m 91.9051,51.23049 q -7.8418,0 -12.1887,-5.3277 -4.3057,-5.3276 -4.3057,-15.2582 0,-9.5898 4.3057,-14.747 4.3469,-5.1571 11.9329,-5.1571 5.5843,0 9.3343,2.85571 3.7512,2.85549 5.3276,8.14059 l 12.4025,-2.68519 q -0.985,-4.30481 -3.1536,-7.9276 -2.1312,-3.6227 -5.4133,-6.4357 -3.2812,-2.8129 -8.0128,-4.3899 -4.7304,-1.6196 -10.3994,-1.6196 -9.0356,0 -15.8552,4.1768 -6.8191,4.1768 -10.3565,11.4225 -3.5378,7.2029 -3.5378,16.3665 0,7.0324 2.0463,13.042 2.046,5.967 5.7959,10.3143 3.7941,4.3474 9.4619,6.8194 5.6692,2.472 12.6159,2.472 11.1248,0 17.9439,-5.4129 6.8196,-5.4554 9.1205,-15.3436 l -12.3169,-2.813 q -3.2396,11.5077 -14.7475,11.50769 z m 170.1728,10.3144 h 13.6807 l -22.3336,-61.5449 h -13.8088 l -22.3336,61.5449 h 13.7235 l 3.4526,-10.3995 h 24.1238 z m -23.9536,-21.5663 8.3959,-24.89079 8.3111,24.89079 z m 118.2877,-32.5625 h -11.1668 l -10.186,32.6477 -10.5708,-40.06379 h -12.9141 l 16.4953,61.5449 h 11.507 l 11.1664,-35.546 11.1668,35.546 h 11.7207 l 16.4097,-61.5449 h -12.9142 l -10.4851,40.06379 z m 114.2807,54.1288 h 13.6819 l -22.3335,-61.5449 h -13.8089 l -22.333,61.5449 h 13.7229 l 3.4527,-10.3995 h 24.1237 z m -23.9523,-21.5663 8.3958,-24.89079 8.3111,24.89079 z m 95.0171,0.2558 h 10.4418 l 12.3172,21.3105 h 14.3203 l -14.1501,-23.2284 q 6.0101,-2.2589 9.0788,-6.862 3.0682,-4.6458 3.0682,-11.1242 0,-9.93059 -6.1794,-15.1304 -6.1807,-5.1998 -18.1992,-5.1998 h -23.2715 v 61.5448 h 12.5739 z m 0,-29.0676 h 10.4418 q 11.3797,0 11.3797,8.8227 0,9.0781 -11.3797,9.0781 h -10.4418 z m 104.5205,-11.1667 h -21.0117 v 61.5448 h 21.0117 q 14.7047,0 22.8447,-8.098 8.141,-8.1405 8.141,-22.7169 0,-14.5338 -8.141,-22.6319 -8.14,-8.098 -22.8447,-8.098 z m 0,50.3781 h -8.4388 v -39.2114 h 8.4388 q 8.8226,0 13.1698,5.0294 4.3902,4.9866 4.3902,14.5338 0,19.6482 -17.56,19.6482 z m 101.5375,12.9142 q 10.9967,0 17.3043,-5.0719 6.3507,-5.0719 6.3507,-13.17 0,-3.7932 -0.9854,-6.7767 -0.985,-3.0261 -2.6852,-4.9441 -1.662,-1.9604 -3.9209,-3.4948 -2.2165,-1.5344 -4.7733,-2.3442 -2.515,-0.85189 -5.1574,-1.6196 -2.6424,-0.7673 -5.2003,-1.236 -2.5139,-0.4688 -4.7733,-1.1508 -2.216,-0.7245 -3.9209,-1.5344 -1.662,-0.8101 -2.6423,-2.1737 -0.9757,-1.4064 -0.9757,-3.2818 0,-3.1965 2.3441,-5.0293 2.3447,-1.87519 6.9905,-1.87519 4.646,0 7.3727,2.3442 2.7709,2.3014 3.538,6.2226 l 12.2314,-1.918 q -1.2348,-7.8849 -7.1596,-12.6585 -5.9245,-4.8161 -15.8981,-4.8161 -5.157,0 -9.3762,1.4917 -4.2196,1.4492 -6.9476,3.9638 -2.6852,2.5147 -4.1343,5.7539 -1.4491,3.2392 -1.4491,6.8619 0,3.9638 1.1518,7.0751 1.1932,3.0687 3.1955,4.9866 2.0034,1.9181 4.561,3.3672 2.5995,1.4064 5.4553,2.2589 2.8978,0.8101 5.7543,1.5344 2.8554,0.6817 5.412,1.4064 2.6009,0.6817 4.6031,1.6197 2.0036,0.8947 3.154,2.4294 1.1941,1.5343 1.1941,3.6228 0,3.4949 -2.9834,5.3276 -2.9838,1.8326 -7.544,1.8326 -5.925,0 -9.2062,-2.7276 -3.2397,-2.7706 -4.3472,-8.0982 l -12.7441,2.2591 q 3.7085,19.563 26.2117,19.56299 z"
     id="text1-3"
     style="font-weight:500;font-size:8.77051px;line-height:1;font-family:'MTV Gravity Grotesk';-inkscape-font-specification:'MTV Gravity Grotesk Medium';letter-spacing:4.02696px;fill:#f138f8;stroke:none;stroke-width:4.74465;font-variation-settings:normal;opacity:1;vector-effect:none;fill-opacity:1;stroke-linecap:butt;stroke-linejoin:miter;stroke-miterlimit:4;stroke-dasharray:none;stroke-dashoffset:0;stroke-opacity:1;-inkscape-stroke:none;stop-color:#000000;stop-opacity:1"
     aria-label="VIDEO MUSIC AWARDS" /><metadata
     id="metadata2688"><rdf:RDF><cc:Work
         rdf:about=""><dc:title>2022 MTV Video Music Awards</dc:title><dc:subject><rdf:Bag><rdf:li>MTV Video Music Awards</rdf:li><rdf:li>2022</rdf:li><rdf:li>VMAs</rdf:li><rdf:li>MTV</rdf:li><rdf:li>Awards</rdf:li><rdf:li>Show</rdf:li><rdf:li>Prudential Center</rdf:li><rdf:li>Newark</rdf:li></rdf:Bag></dc:subject></cc:Work></rdf:RDF></metadata></svg>
